<svg width="24" height="25" viewBox="0 0 24 25" fill="none" xmlns="http://www.w3.org/2000/svg">
<g id="Layer 2">
<g id="icons">
<path id="Vector" d="M6.54378 24.1063H3.90006C3.19891 24.1063 2.52647 23.8309 2.03067 23.3408C1.53488 22.8508 1.25635 22.186 1.25635 21.4929V10.1119C1.2566 9.72046 1.34581 9.33404 1.51741 8.98123C1.689 8.62841 1.93859 8.31821 2.24774 8.07354L10.1789 1.80157C10.6478 1.43047 11.2305 1.22827 11.8312 1.22827C12.4319 1.22827 13.0146 1.43047 13.4835 1.80157L21.4147 8.07354C21.7238 8.31821 21.9734 8.62841 22.145 8.98123C22.3166 9.33404 22.4058 9.72046 22.4061 10.1119V21.4929C22.4061 22.186 22.1275 22.8508 21.6317 23.3408C21.1359 23.8309 20.4635 24.1063 19.7623 24.1063H17.1186" stroke="#222224" stroke-width="1.69953" stroke-linecap="round" stroke-linejoin="round"/>
<path id="Vector_2" d="M7.8656 16.2663H15.7967" stroke="#8C10FE" stroke-width="1.69953" stroke-linecap="round" stroke-linejoin="round"/>
<path id="Vector_3" d="M11.8312 12.3463V24.1063" stroke="#8C10FE" stroke-width="1.69953" stroke-linecap="round" stroke-linejoin="round"/>
</g>
</g>
</svg>
