<svg width="30" height="30" viewBox="0 0 30 30" fill="none" xmlns="http://www.w3.org/2000/svg">
<g id="Layer 2">
<g id="icons">
<path id="Vector" d="M20.8693 21.4116C20.3879 20.3329 19.6046 19.4166 18.6139 18.7733C17.6233 18.1301 16.4675 17.7873 15.2863 17.7865C14.1051 17.7873 12.9494 18.1301 11.9587 18.7733C10.968 19.4166 10.1847 20.3329 9.70337 21.4116" stroke="#8C10FE" stroke-width="1.69953" stroke-linecap="round" stroke-linejoin="round"/>
<path id="Vector_2" d="M15.2863 13.1977C16.9759 13.1977 18.3455 11.8281 18.3455 10.1386C18.3455 8.44907 16.9759 7.07944 15.2863 7.07944C13.5968 7.07944 12.2272 8.44907 12.2272 10.1386C12.2272 11.8281 13.5968 13.1977 15.2863 13.1977Z" stroke="#8C10FE" stroke-width="1.69953" stroke-linecap="round" stroke-linejoin="round"/>
<path id="Vector_3" d="M15.2863 28.4935C22.8892 28.4935 29.0525 22.3302 29.0525 14.7273C29.0525 7.12447 22.8892 0.961136 15.2863 0.961136C7.68348 0.961136 1.52014 7.12447 1.52014 14.7273C1.52014 22.3302 7.68348 28.4935 15.2863 28.4935Z" stroke="#222224" stroke-width="1.69953" stroke-linecap="round" stroke-linejoin="round"/>
</g>
</g>
</svg>
