<svg width="19" height="24" viewBox="0 0 19 24" fill="none" xmlns="http://www.w3.org/2000/svg">
<g id="Icon-Homefeed" clip-path="url(#clip0_53_54)">
<g id="icons">
<path id="Vector" d="M9.19995 19.83C9.06995 19.83 8.93995 19.81 8.81995 19.76C8.69995 19.71 8.58995 19.63 8.48995 19.54C8.39995 19.45 8.32995 19.34 8.27995 19.22C8.21995 19.1 8.19995 18.96 8.19995 18.83C8.19995 18.7 8.21995 18.57 8.27995 18.45C8.32995 18.33 8.39995 18.22 8.48995 18.13C8.87995 17.74 9.50995 17.73 9.89995 18.13C10.08 18.32 10.19 18.57 10.19 18.83C10.19 18.96 10.16 19.1 10.11 19.22C9.94995 19.59 9.58995 19.83 9.18995 19.83H9.19995Z" fill="#222224"/>
<path id="Vector_2" d="M4.8999 8.66H13.4999" stroke="#8247F6" stroke-width="2" stroke-linecap="round" stroke-linejoin="round"/>
<path id="Vector_3" d="M4.8999 13.75H13.4999" stroke="#8247F6" stroke-width="2" stroke-linecap="round" stroke-linejoin="round"/>
<path id="Vector_4" d="M15.03 1H3.37C2.06108 1 1 2.06108 1 3.37V20.28C1 21.5889 2.06108 22.65 3.37 22.65H15.03C16.3389 22.65 17.4 21.5889 17.4 20.28V3.37C17.4 2.06108 16.3389 1 15.03 1Z" stroke="#222224" stroke-width="2" stroke-miterlimit="10"/>
<path id="Vector_5" d="M4.52002 1.18L7.09002 3.51H11.3L13.88 1.18H4.52002Z" fill="#222224" stroke="#222224" stroke-width="2" stroke-linecap="round" stroke-linejoin="round"/>
</g>
</g>
<defs>
<clipPath id="clip0_53_54">
<rect width="18.4" height="23.65" fill="white"/>
</clipPath>
</defs>
</svg>
