<svg width="22" height="24" viewBox="0 0 22 24" fill="none" xmlns="http://www.w3.org/2000/svg">
<g id="Home Icon">
<path id="Vector" d="M5.88889 22.7696H3.44444C2.79614 22.7696 2.17438 22.5104 1.71596 22.049C1.25754 21.5876 1 20.9619 1 20.3094V9.59485C1.00023 9.2263 1.08272 8.86252 1.24138 8.53036C1.40004 8.19821 1.63082 7.90617 1.91667 7.67583L9.25 1.77117C9.68355 1.4218 10.2224 1.23145 10.7778 1.23145C11.3332 1.23145 11.872 1.4218 12.3056 1.77117L19.6389 7.67583C19.9247 7.90617 20.1555 8.19821 20.3142 8.53036C20.4728 8.86252 20.5553 9.2263 20.5556 9.59485V20.3094C20.5556 20.9619 20.298 21.5876 19.8396 22.049C19.3812 22.5104 18.7594 22.7696 18.1111 22.7696H15.6667" stroke="#4B4B4D" stroke-width="2" stroke-linecap="round" stroke-linejoin="round"/>
<path id="Vector_2" d="M7.11133 15.3888H14.4447" stroke="#4B4B4D" stroke-width="2" stroke-linecap="round" stroke-linejoin="round"/>
<path id="Vector_3" d="M10.7773 11.6984V22.7696" stroke="#4B4B4D" stroke-width="2" stroke-linecap="round" stroke-linejoin="round"/>
</g>
</svg>
