<svg width="22" height="24" viewBox="0 0 22 24" fill="none" xmlns="http://www.w3.org/2000/svg">
<g id="Inbox Icon">
<path id="Vector" d="M5.88867 6.0002H15.6664" stroke="#4B4B4D" stroke-width="2" stroke-linecap="round" stroke-linejoin="round"/>
<path id="Vector_2" d="M5.88867 10.8002H15.6664" stroke="#4B4B4D" stroke-width="2" stroke-linecap="round" stroke-linejoin="round"/>
<path id="Vector_3" d="M18.1111 1.2002H3.44444C2.09441 1.2002 1 2.27471 1 3.6002V20.4002C1 21.7257 2.09441 22.8002 3.44444 22.8002H18.1111C19.4611 22.8002 20.5556 21.7257 20.5556 20.4002V3.6002C20.5556 2.27471 19.4611 1.2002 18.1111 1.2002Z" stroke="#4B4B4D" stroke-width="2" stroke-linecap="round" stroke-linejoin="round"/>
<path id="Vector_4" d="M1 15.6002H6.5C6.98623 15.6002 7.45255 15.7898 7.79636 16.1274C8.14018 16.465 8.33333 16.9228 8.33333 17.4002V17.4002C8.33333 17.8776 8.52649 18.3354 8.8703 18.673C9.21412 19.0106 9.68044 19.2002 10.1667 19.2002H11.3889C11.8751 19.2002 12.3414 19.0106 12.6853 18.673C13.0291 18.3354 13.2222 17.8776 13.2222 17.4002C13.2222 16.9228 13.4154 16.465 13.7592 16.1274C14.103 15.7898 14.5693 15.6002 15.0556 15.6002H20.5556" stroke="#4B4B4D" stroke-width="2" stroke-linecap="round" stroke-linejoin="round"/>
</g>
</svg>
