<svg width="24" height="20" viewBox="0 0 24 20" fill="none" xmlns="http://www.w3.org/2000/svg">
<g id="Members Icon">
<path id="Vector" d="M11.8 9.23529C13.073 9.23529 14.2939 9.73109 15.1941 10.6136C16.0943 11.4961 16.6 12.6931 16.6 13.9412V18.6471H7V13.9412C7 12.6931 7.50571 11.4961 8.40589 10.6136C9.30606 9.73109 10.527 9.23529 11.8 9.23529V9.23529Z" stroke="#4B4B4D" stroke-width="2" stroke-linecap="round" stroke-linejoin="round"/>
<path id="Vector_2" d="M11.8004 5.70588C13.1259 5.70588 14.2004 4.65243 14.2004 3.35294C14.2004 2.05345 13.1259 1 11.8004 1C10.4749 1 9.40039 2.05345 9.40039 3.35294C9.40039 4.65243 10.4749 5.70588 11.8004 5.70588Z" stroke="#4B4B4D" stroke-width="2" stroke-linecap="round" stroke-linejoin="round"/>
<path id="Vector_3" d="M3.4 18.6471C2.76348 18.6471 2.15303 18.3992 1.70295 17.9579C1.25286 17.5166 1 16.9182 1 16.2941V14.8235C0.999238 14.0012 1.29136 13.2045 1.82594 12.5708C2.36052 11.9372 3.104 11.5064 3.928 11.3529" stroke="#4B4B4D" stroke-width="2" stroke-linecap="round" stroke-linejoin="round"/>
<path id="Vector_4" d="M4.60039 8.05883C5.26313 8.05883 5.80039 7.5321 5.80039 6.88236C5.80039 6.23261 5.26313 5.70589 4.60039 5.70589C3.93765 5.70589 3.40039 6.23261 3.40039 6.88236C3.40039 7.5321 3.93765 8.05883 4.60039 8.05883Z" stroke="#4B4B4D" stroke-width="2" stroke-linecap="round" stroke-linejoin="round"/>
<path id="Vector_5" d="M20.1999 18.6471C20.8364 18.6471 21.4468 18.3992 21.8969 17.9579C22.347 17.5166 22.5999 16.9182 22.5999 16.2941V14.8235C22.6006 14.0012 22.3085 13.2045 21.7739 12.5708C21.2394 11.9372 20.4959 11.5064 19.6719 11.3529" stroke="#4B4B4D" stroke-width="2" stroke-linecap="round" stroke-linejoin="round"/>
<path id="Vector_6" d="M18.9998 8.05883C19.6625 8.05883 20.1998 7.5321 20.1998 6.88236C20.1998 6.23261 19.6625 5.70589 18.9998 5.70589C18.3371 5.70589 17.7998 6.23261 17.7998 6.88236C17.7998 7.5321 18.3371 8.05883 18.9998 8.05883Z" stroke="#4B4B4D" stroke-width="2" stroke-linecap="round" stroke-linejoin="round"/>
</g>
</svg>
